<svg width="800" height="700" viewBox="0 0 800 700" fill="none" xmlns="http://www.w3.org/2000/svg">
  <defs>
    <linearGradient id="bg" x1="0" y1="0" x2="1" y2="1">
      <stop offset="0%" stop-color="#E0F2FE"/>
      <stop offset="100%" stop-color="#DBEAFE"/>
    </linearGradient>
    <linearGradient id="shirt" x1="0" y1="0" x2="1" y2="1">
      <stop offset="0%" stop-color="#22C1F1"/>
      <stop offset="100%" stop-color="#2563EB"/>
    </linearGradient>
  </defs>

  <rect width="800" height="700" rx="32" fill="url(#bg)"/>

  <circle cx="650" cy="120" r="48" fill="#BFDBFE" opacity="0.7"/>
  <circle cx="150" cy="100" r="32" fill="#BAE6FD" opacity="0.7"/>
  <circle cx="700" cy="560" r="56" fill="#C7D2FE" opacity="0.6"/>

  <rect x="170" y="430" width="460" height="26" rx="13" fill="#94A3B8" opacity="0.35"/>

  <rect x="280" y="310" width="250" height="130" rx="18" fill="#1E293B"/>
  <rect x="300" y="330" width="210" height="76" rx="10" fill="#0F172A"/>
  <rect x="330" y="458" width="150" height="12" rx="6" fill="#64748B"/>

  <ellipse cx="420" cy="255" rx="70" ry="78" fill="#F8C4A5"/>
  <path d="M350 250C350 206 379 170 420 170C461 170 490 206 490 250V255H350V250Z" fill="#0F172A"/>

  <path d="M338 510C344 423 374 360 420 360C466 360 496 423 502 510H338Z" fill="url(#shirt)"/>

  <rect x="350" y="300" width="140" height="24" rx="12" fill="#F8C4A5"/>

  <rect x="260" y="420" width="130" height="26" rx="13" transform="rotate(-18 260 420)" fill="#F8C4A5"/>
  <rect x="450" y="395" width="130" height="26" rx="13" transform="rotate(14 450 395)" fill="#F8C4A5"/>

  <rect x="320" y="460" width="200" height="70" rx="14" fill="#1D4ED8" opacity="0.12"/>

  <text x="58" y="620" fill="#0F172A" font-family="Inter, Segoe UI, Arial" font-size="24" font-weight="700">JnanaNet Student Portal</text>
  <text x="58" y="654" fill="#334155" font-family="Inter, Segoe UI, Arial" font-size="18">AI-powered scholarship discovery</text>
</svg>
